<svg width="151" height="52" viewBox="0 0 151 52" fill="none" xmlns="http://www.w3.org/2000/svg">
<path d="M0 5C0 2.23858 2.23858 0 5 0H146C148.761 0 151 2.23858 151 5V47C151 49.7614 148.761 52 146 52H5C2.23858 52 0 49.7614 0 47V5Z" fill="#167AC6"/>
<path d="M34.5413 31V21.2H36.8093V29.152H41.7233V31H34.5413ZM46.5795 31.112C45.7768 31.112 45.0628 30.944 44.4375 30.608C43.8215 30.272 43.3315 29.8147 42.9675 29.236C42.6128 28.648 42.4355 27.9807 42.4355 27.234C42.4355 26.478 42.6128 25.8107 42.9675 25.232C43.3315 24.644 43.8215 24.1867 44.4375 23.86C45.0628 23.524 45.7768 23.356 46.5795 23.356C47.3728 23.356 48.0822 23.524 48.7075 23.86C49.3328 24.1867 49.8228 24.6393 50.1775 25.218C50.5322 25.7967 50.7095 26.4687 50.7095 27.234C50.7095 27.9807 50.5322 28.648 50.1775 29.236C49.8228 29.8147 49.3328 30.272 48.7075 30.608C48.0822 30.944 47.3728 31.112 46.5795 31.112ZM46.5795 29.32C46.9435 29.32 47.2702 29.236 47.5595 29.068C47.8488 28.9 48.0775 28.662 48.2455 28.354C48.4135 28.0367 48.4975 27.6633 48.4975 27.234C48.4975 26.7953 48.4135 26.422 48.2455 26.114C48.0775 25.806 47.8488 25.568 47.5595 25.4C47.2702 25.232 46.9435 25.148 46.5795 25.148C46.2155 25.148 45.8888 25.232 45.5995 25.4C45.3102 25.568 45.0768 25.806 44.8995 26.114C44.7315 26.422 44.6475 26.7953 44.6475 27.234C44.6475 27.6633 44.7315 28.0367 44.8995 28.354C45.0768 28.662 45.3102 28.9 45.5995 29.068C45.8888 29.236 46.2155 29.32 46.5795 29.32ZM56.8663 31V29.53L56.7263 29.208V26.576C56.7263 26.1093 56.5816 25.7453 56.2923 25.484C56.0123 25.2227 55.5783 25.092 54.9903 25.092C54.5889 25.092 54.1923 25.1573 53.8003 25.288C53.4176 25.4093 53.0909 25.5773 52.8203 25.792L52.0363 24.266C52.4469 23.9767 52.9416 23.7527 53.5203 23.594C54.0989 23.4353 54.6869 23.356 55.2843 23.356C56.4323 23.356 57.3236 23.6267 57.9583 24.168C58.5929 24.7093 58.9103 25.554 58.9103 26.702V31H56.8663ZM54.5703 31.112C53.9823 31.112 53.4783 31.014 53.0583 30.818C52.6383 30.6127 52.3163 30.3373 52.0923 29.992C51.8683 29.6467 51.7563 29.2593 51.7563 28.83C51.7563 28.382 51.8636 27.99 52.0783 27.654C52.3023 27.318 52.6523 27.0567 53.1283 26.87C53.6043 26.674 54.2249 26.576 54.9903 26.576H56.9923V27.85H55.2283C54.7149 27.85 54.3603 27.934 54.1643 28.102C53.9776 28.27 53.8843 28.48 53.8843 28.732C53.8843 29.012 53.9916 29.236 54.2063 29.404C54.4303 29.5627 54.7336 29.642 55.1163 29.642C55.4803 29.642 55.8069 29.558 56.0963 29.39C56.3856 29.2127 56.5956 28.956 56.7263 28.62L57.0623 29.628C56.9036 30.1133 56.6143 30.482 56.1943 30.734C55.7743 30.986 55.2329 31.112 54.5703 31.112ZM64.3756 31.112C63.6663 31.112 63.0269 30.9533 62.4576 30.636C61.8883 30.3093 61.4356 29.8567 61.0996 29.278C60.7729 28.6993 60.6096 28.018 60.6096 27.234C60.6096 26.4407 60.7729 25.7547 61.0996 25.176C61.4356 24.5973 61.8883 24.1493 62.4576 23.832C63.0269 23.5147 63.6663 23.356 64.3756 23.356C65.0103 23.356 65.5656 23.496 66.0416 23.776C66.5176 24.056 66.8863 24.4807 67.1476 25.05C67.4089 25.6193 67.5396 26.3473 67.5396 27.234C67.5396 28.1113 67.4136 28.8393 67.1616 29.418C66.9096 29.9873 66.5456 30.412 66.0696 30.692C65.6029 30.972 65.0383 31.112 64.3756 31.112ZM64.7536 29.32C65.1083 29.32 65.4303 29.236 65.7196 29.068C66.0089 28.9 66.2376 28.662 66.4056 28.354C66.5829 28.0367 66.6716 27.6633 66.6716 27.234C66.6716 26.7953 66.5829 26.422 66.4056 26.114C66.2376 25.806 66.0089 25.568 65.7196 25.4C65.4303 25.232 65.1083 25.148 64.7536 25.148C64.3896 25.148 64.0629 25.232 63.7736 25.4C63.4843 25.568 63.2509 25.806 63.0736 26.114C62.9056 26.422 62.8216 26.7953 62.8216 27.234C62.8216 27.6633 62.9056 28.0367 63.0736 28.354C63.2509 28.662 63.4843 28.9 63.7736 29.068C64.0629 29.236 64.3896 29.32 64.7536 29.32ZM66.7276 31V29.46L66.7696 27.22L66.6296 24.994V20.612H68.8136V31H66.7276ZM89.0106 23.356C89.608 23.356 90.1353 23.4773 90.5926 23.72C91.0593 23.9533 91.4233 24.3173 91.6846 24.812C91.9553 25.2973 92.0906 25.9227 92.0906 26.688V31H89.9066V27.024C89.9066 26.4173 89.7806 25.9693 89.5286 25.68C89.2766 25.3907 88.922 25.246 88.4646 25.246C88.1473 25.246 87.8626 25.3207 87.6106 25.47C87.3586 25.61 87.1626 25.8247 87.0226 26.114C86.8826 26.4033 86.8126 26.772 86.8126 27.22V31H84.6286V27.024C84.6286 26.4173 84.5026 25.9693 84.2506 25.68C84.008 25.3907 83.658 25.246 83.2006 25.246C82.8833 25.246 82.5986 25.3207 82.3466 25.47C82.0946 25.61 81.8986 25.8247 81.7586 26.114C81.6186 26.4033 81.5486 26.772 81.5486 27.22V31H79.3646V23.468H81.4506V25.526L81.0586 24.924C81.32 24.4107 81.6886 24.0233 82.1646 23.762C82.65 23.4913 83.2006 23.356 83.8166 23.356C84.5073 23.356 85.1093 23.5333 85.6226 23.888C86.1453 24.2333 86.4906 24.7653 86.6586 25.484L85.8886 25.274C86.1406 24.686 86.542 24.2193 87.0926 23.874C87.6526 23.5287 88.292 23.356 89.0106 23.356ZM97.8869 31.112C97.0843 31.112 96.3703 30.944 95.7449 30.608C95.1289 30.272 94.6389 29.8147 94.2749 29.236C93.9203 28.648 93.7429 27.9807 93.7429 27.234C93.7429 26.478 93.9203 25.8107 94.2749 25.232C94.6389 24.644 95.1289 24.1867 95.7449 23.86C96.3703 23.524 97.0843 23.356 97.8869 23.356C98.6803 23.356 99.3896 23.524 100.015 23.86C100.64 24.1867 101.13 24.6393 101.485 25.218C101.84 25.7967 102.017 26.4687 102.017 27.234C102.017 27.9807 101.84 28.648 101.485 29.236C101.13 29.8147 100.64 30.272 100.015 30.608C99.3896 30.944 98.6803 31.112 97.8869 31.112ZM97.8869 29.32C98.2509 29.32 98.5776 29.236 98.8669 29.068C99.1563 28.9 99.3849 28.662 99.5529 28.354C99.7209 28.0367 99.8049 27.6633 99.8049 27.234C99.8049 26.7953 99.7209 26.422 99.5529 26.114C99.3849 25.806 99.1563 25.568 98.8669 25.4C98.5776 25.232 98.2509 25.148 97.8869 25.148C97.5229 25.148 97.1963 25.232 96.9069 25.4C96.6176 25.568 96.3843 25.806 96.2069 26.114C96.0389 26.422 95.9549 26.7953 95.9549 27.234C95.9549 27.6633 96.0389 28.0367 96.2069 28.354C96.3843 28.662 96.6176 28.9 96.9069 29.068C97.1963 29.236 97.5229 29.32 97.8869 29.32ZM103.677 31V23.468H105.763V25.596L105.469 24.98C105.693 24.448 106.052 24.0467 106.547 23.776C107.041 23.496 107.643 23.356 108.353 23.356V25.372C108.259 25.3627 108.175 25.358 108.101 25.358C108.026 25.3487 107.947 25.344 107.863 25.344C107.265 25.344 106.78 25.5167 106.407 25.862C106.043 26.198 105.861 26.7253 105.861 27.444V31H103.677ZM113.535 31.112C112.676 31.112 111.92 30.944 111.267 30.608C110.623 30.272 110.123 29.8147 109.769 29.236C109.414 28.648 109.237 27.9807 109.237 27.234C109.237 26.478 109.409 25.8107 109.755 25.232C110.109 24.644 110.59 24.1867 111.197 23.86C111.803 23.524 112.489 23.356 113.255 23.356C113.992 23.356 114.655 23.5147 115.243 23.832C115.84 24.14 116.311 24.588 116.657 25.176C117.002 25.7547 117.175 26.45 117.175 27.262C117.175 27.346 117.17 27.444 117.161 27.556C117.151 27.6587 117.142 27.7567 117.133 27.85H111.015V26.576H115.985L115.145 26.954C115.145 26.562 115.065 26.2213 114.907 25.932C114.748 25.6427 114.529 25.4187 114.249 25.26C113.969 25.092 113.642 25.008 113.269 25.008C112.895 25.008 112.564 25.092 112.275 25.26C111.995 25.4187 111.775 25.6473 111.617 25.946C111.458 26.2353 111.379 26.5807 111.379 26.982V27.318C111.379 27.7287 111.467 28.0927 111.645 28.41C111.831 28.718 112.088 28.956 112.415 29.124C112.751 29.2827 113.143 29.362 113.591 29.362C113.992 29.362 114.342 29.3013 114.641 29.18C114.949 29.0587 115.229 28.8767 115.481 28.634L116.643 29.894C116.297 30.286 115.863 30.5893 115.341 30.804C114.818 31.0093 114.216 31.112 113.535 31.112Z" fill="white"/>
</svg>
